<?xml version="1.0" encoding="UTF-8"?>
<!DOCTYPE svg PUBLIC "-//W3C//DTD SVG 1.1//EN" "http://www.w3.org/Graphics/SVG/1.1/DTD/svg11.dtd">
<svg xmlns="http://www.w3.org/2000/svg" version="1.1" width="961px" height="252px" style="shape-rendering:geometricPrecision; text-rendering:geometricPrecision; image-rendering:optimizeQuality; fill-rule:evenodd; clip-rule:evenodd" xmlns:xlink="http://www.w3.org/1999/xlink">
<g><path style="opacity:0.989" fill="#a2d9fe" d="M 23.5,29.5 C 80.8333,29.5 138.167,29.5 195.5,29.5C 195.5,86.8333 195.5,144.167 195.5,201.5C 173.5,201.5 151.5,201.5 129.5,201.5C 129.5,166.167 129.5,130.833 129.5,95.5C 94.1667,95.5 58.8333,95.5 23.5,95.5C 23.5,73.5 23.5,51.5 23.5,29.5 Z"/></g>
<g><path style="opacity:1" fill="#fafafb" d="M 260.5,167.5 C 260.027,166.094 259.027,165.427 257.5,165.5C 250.892,161.361 246.725,155.361 245,147.5C 244.037,141.535 243.537,135.535 243.5,129.5C 254.167,129.5 264.833,129.5 275.5,129.5C 275.794,134.261 276.627,138.928 278,143.5C 281.396,147.203 285.563,148.369 290.5,147C 298.392,136.273 296.725,127.273 285.5,120C 278.177,116.96 271.177,113.46 264.5,109.5C 264.027,108.094 263.027,107.427 261.5,107.5C 249.762,99.3512 244.429,88.0179 245.5,73.5C 245.16,45.341 258.993,31.341 287,31.5C 315.349,31.0194 328.516,45.0194 326.5,73.5C 316.167,73.5 305.833,73.5 295.5,73.5C 296.524,67.1173 294.857,61.6173 290.5,57C 284.049,54.8221 279.882,56.9888 278,63.5C 276.713,72.5529 280.213,79.0529 288.5,83C 300.022,87.1586 310.522,92.9919 320,100.5C 330.813,115.857 333.146,132.524 327,150.5C 322.275,160.629 314.442,167.129 303.5,170C 292.884,171.541 282.217,171.875 271.5,171C 267.509,170.502 263.842,169.335 260.5,167.5 Z"/></g>
<g><path style="opacity:1" fill="#fbfbfc" d="M 371.5,33.5 C 371.333,50.8365 371.5,68.1699 372,85.5C 373.039,84.7562 373.539,83.7562 373.5,82.5C 380.419,66.1613 387.752,49.9947 395.5,34C 407.5,33.3333 419.5,33.3333 431.5,34C 420.649,53.3667 410.316,73.0333 400.5,93C 411.736,118.209 423.07,143.375 434.5,168.5C 421.833,169.833 409.167,169.833 396.5,168.5C 390.82,153.812 385.153,139.146 379.5,124.5C 379.214,122.067 378.548,122.067 377.5,124.5C 376.261,127.589 374.761,130.589 373,133.5C 372.5,145.495 372.333,157.495 372.5,169.5C 361.5,169.5 350.5,169.5 339.5,169.5C 339.5,124.167 339.5,78.8333 339.5,33.5C 350.167,33.5 360.833,33.5 371.5,33.5 Z"/></g>
<g><path style="opacity:0.937" fill="#cbcdd2" d="M 371.5,33.5 C 372.167,49.8333 372.833,66.1667 373.5,82.5C 373.539,83.7562 373.039,84.7562 372,85.5C 371.5,68.1699 371.333,50.8365 371.5,33.5 Z"/></g>
<g><path style="opacity:1" fill="#fbfbfc" d="M 467.5,33.5 C 481.5,33.5 495.5,33.5 509.5,33.5C 519.341,78.5317 529.341,123.532 539.5,168.5C 527.848,169.666 516.181,169.833 504.5,169C 503.074,161.348 501.74,153.681 500.5,146C 492.507,145.5 484.507,145.334 476.5,145.5C 475.127,153.448 474.127,161.448 473.5,169.5C 461.833,169.5 450.167,169.5 438.5,169.5C 448.166,124.168 457.833,78.8348 467.5,33.5 Z M 489.5,66.5 C 491.834,83.8352 494.167,101.169 496.5,118.5C 491.167,118.5 485.833,118.5 480.5,118.5C 482.942,101.515 485.275,84.5147 487.5,67.5C 488.167,67.1667 488.833,66.8333 489.5,66.5 Z"/></g>
<g><path style="opacity:1" fill="#fbfbfc" d="M 573.5,33.5 C 587.5,33.5 601.5,33.5 615.5,33.5C 625.341,78.5317 635.341,123.532 645.5,168.5C 633.848,169.666 622.181,169.833 610.5,169C 609.074,161.348 607.74,153.681 606.5,146C 598.507,145.5 590.507,145.334 582.5,145.5C 581.127,153.448 580.127,161.448 579.5,169.5C 567.833,169.5 556.167,169.5 544.5,169.5C 554.166,124.168 563.833,78.8348 573.5,33.5 Z M 595.5,66.5 C 597.834,83.8352 600.167,101.169 602.5,118.5C 597.167,118.5 591.833,118.5 586.5,118.5C 588.942,101.515 591.275,84.5147 593.5,67.5C 594.167,67.1667 594.833,66.8333 595.5,66.5 Z"/></g>
<g><path style="opacity:1" fill="#fcfcfc" d="M 649.5,33.5 C 660.5,33.5 671.5,33.5 682.5,33.5C 682.5,69.1667 682.5,104.833 682.5,140.5C 695.833,140.5 709.167,140.5 722.5,140.5C 722.5,150.167 722.5,159.833 722.5,169.5C 698.167,169.5 673.833,169.5 649.5,169.5C 649.5,124.167 649.5,78.8333 649.5,33.5 Z"/></g>
<g><path style="opacity:1" fill="#fbfbfc" d="M 760.5,33.5 C 774.5,33.5 788.5,33.5 802.5,33.5C 812.341,78.5317 822.341,123.532 832.5,168.5C 820.848,169.666 809.181,169.833 797.5,169C 796.074,161.348 794.74,153.681 793.5,146C 785.507,145.5 777.507,145.334 769.5,145.5C 768.127,153.448 767.127,161.448 766.5,169.5C 754.833,169.5 743.167,169.5 731.5,169.5C 741.166,124.168 750.833,78.8348 760.5,33.5 Z M 782.5,66.5 C 784.834,83.8352 787.167,101.169 789.5,118.5C 784.167,118.5 778.833,118.5 773.5,118.5C 775.942,101.515 778.275,84.5147 780.5,67.5C 781.167,67.1667 781.833,66.8333 782.5,66.5 Z"/></g>
<g><path style="opacity:1" fill="#fbfbfc" d="M 916.5,42.5 C 916.427,44.0269 917.094,45.0269 918.5,45.5C 921.564,48.8237 923.397,52.8237 924,57.5C 927.54,72.4036 924.04,85.2369 913.5,96C 912.255,96.7914 910.922,97.2914 909.5,97.5C 904.371,98.6144 904.371,99.281 909.5,99.5C 920.379,103.205 926.546,110.872 928,122.5C 929.602,134.486 927.602,145.819 922,156.5C 917.046,163.061 910.546,167.228 902.5,169C 882.169,169.5 861.836,169.667 841.5,169.5C 841.5,124.167 841.5,78.8333 841.5,33.5C 861.503,33.3334 881.503,33.5 901.5,34C 907.464,35.3102 912.464,38.1435 916.5,42.5 Z M 874.5,58.5 C 885.892,56.8397 891.559,61.673 891.5,73C 891.559,84.327 885.892,89.1603 874.5,87.5C 874.5,77.8333 874.5,68.1667 874.5,58.5 Z M 892.5,138.5 C 890.5,139.833 888.833,141.5 887.5,143.5C 883.19,144.08 878.857,144.414 874.5,144.5C 874.5,133.5 874.5,122.5 874.5,111.5C 887.105,109.947 893.772,115.447 894.5,128C 893.909,131.527 893.242,135.027 892.5,138.5 Z"/></g>
<g><path style="opacity:0.906" fill="#b5b7c0" d="M 916.5,42.5 C 917.906,42.9731 918.573,43.9731 918.5,45.5C 917.094,45.0269 916.427,44.0269 916.5,42.5 Z"/></g>
<g><path style="opacity:0.122" fill="#969aa5" d="M 489.5,66.5 C 488.833,66.8333 488.167,67.1667 487.5,67.5C 487.215,65.712 487.548,64.0453 488.5,62.5C 489.429,63.6888 489.762,65.0222 489.5,66.5 Z"/></g>
<g><path style="opacity:0.122" fill="#969aa5" d="M 595.5,66.5 C 594.833,66.8333 594.167,67.1667 593.5,67.5C 593.215,65.712 593.548,64.0453 594.5,62.5C 595.429,63.6888 595.762,65.0222 595.5,66.5 Z"/></g>
<g><path style="opacity:0.122" fill="#969aa5" d="M 782.5,66.5 C 781.833,66.8333 781.167,67.1667 780.5,67.5C 780.215,65.712 780.548,64.0453 781.5,62.5C 782.429,63.6888 782.762,65.0222 782.5,66.5 Z"/></g>
<g><path style="opacity:0.529" fill="#9b9faa" d="M 909.5,97.5 C 909.5,98.1667 909.5,98.8333 909.5,99.5C 904.371,99.281 904.371,98.6144 909.5,97.5 Z"/></g>
<g><path style="opacity:0.812" fill="#aeb1ba" d="M 261.5,107.5 C 263.027,107.427 264.027,108.094 264.5,109.5C 262.973,109.573 261.973,108.906 261.5,107.5 Z"/></g>
<g><path style="opacity:1" fill="#fefffe" d="M -0.5,120.5 C 34.5,120.5 69.5,120.5 104.5,120.5C 104.5,155.5 104.5,190.5 104.5,225.5C 69.5,225.5 34.5,225.5 -0.5,225.5C -0.5,190.5 -0.5,155.5 -0.5,120.5 Z"/></g>
<g><path style="opacity:0.937" fill="#ccced3" d="M -0.5,120.5 C -0.5,120.167 -0.5,119.833 -0.5,119.5C 34.8333,119.5 70.1667,119.5 105.5,119.5C 105.832,155.004 105.498,190.337 104.5,225.5C 104.5,190.5 104.5,155.5 104.5,120.5C 69.5,120.5 34.5,120.5 -0.5,120.5 Z"/></g>
<g><path style="opacity:0.235" fill="#979ba7" d="M 379.5,124.5 C 378.833,124.5 378.167,124.5 377.5,124.5C 378.548,122.067 379.214,122.067 379.5,124.5 Z"/></g>
<g><path style="opacity:0.984" fill="#c7c9d0" d="M 892.5,138.5 C 891.833,141.167 890.167,142.833 887.5,143.5C 888.833,141.5 890.5,139.833 892.5,138.5 Z"/></g>
<g><path style="opacity:0.753" fill="#abaeb8" d="M 257.5,165.5 C 259.027,165.427 260.027,166.094 260.5,167.5C 258.973,167.573 257.973,166.906 257.5,165.5 Z"/></g>
<g><path style="opacity:1" fill="#eeeeee" d="M 260.5,215.5 C 261.167,218.167 261.833,218.167 262.5,215.5C 263.777,212.447 265.444,209.614 267.5,207C 270.167,206.333 272.833,206.333 275.5,207C 271.875,212.415 268.375,217.915 265,223.5C 264.501,227.152 264.335,230.818 264.5,234.5C 262.5,234.5 260.5,234.5 258.5,234.5C 258.665,230.818 258.499,227.152 258,223.5C 254.625,217.915 251.125,212.415 247.5,207C 250.167,206.333 252.833,206.333 255.5,207C 257.556,209.614 259.223,212.447 260.5,215.5 Z"/></g>
<g><path style="opacity:1" fill="#eaeaea" d="M 284.5,206.5 C 301.955,205.447 307.789,213.113 302,229.5C 295.459,235.126 288.292,235.96 280.5,232C 274.896,225.803 274.063,218.969 278,211.5C 279.965,209.45 282.132,207.783 284.5,206.5 Z M 287.5,212.5 C 295.642,212.481 298.808,216.481 297,224.5C 291.837,230.062 287.171,229.729 283,223.5C 281.393,218.438 282.893,214.772 287.5,212.5 Z"/></g>
<g><path style="opacity:1" fill="#f4f4f4" d="M 309.5,206.5 C 311.5,206.5 313.5,206.5 315.5,206.5C 315.334,212.176 315.501,217.843 316,223.5C 317.077,228.115 319.91,229.615 324.5,228C 325.893,226.829 326.727,225.329 327,223.5C 327.499,217.843 327.666,212.176 327.5,206.5C 329.5,206.5 331.5,206.5 333.5,206.5C 333.901,214.585 333.401,222.585 332,230.5C 329.307,233.857 325.807,235.191 321.5,234.5C 316.179,235.257 312.346,233.257 310,228.5C 309.5,221.174 309.334,213.841 309.5,206.5 Z"/></g>
<g><path style="opacity:1" fill="#f2f2f2" d="M 338.5,206.5 C 344.509,206.334 350.509,206.501 356.5,207C 358.667,207.833 360.167,209.333 361,211.5C 361.667,214.5 361.667,217.5 361,220.5C 360.167,222.667 358.667,224.167 356.5,225C 358.5,228 360.5,231 362.5,234C 359.833,234.667 357.167,234.667 354.5,234C 352.833,231.667 351.167,229.333 349.5,227C 347.866,226.506 346.199,226.34 344.5,226.5C 344.5,229.167 344.5,231.833 344.5,234.5C 342.5,234.5 340.5,234.5 338.5,234.5C 338.5,225.167 338.5,215.833 338.5,206.5 Z M 344.5,212.5 C 347.518,212.335 350.518,212.502 353.5,213C 356.397,216.229 355.73,218.563 351.5,220C 349.19,220.497 346.857,220.663 344.5,220.5C 344.5,217.833 344.5,215.167 344.5,212.5 Z"/></g>
<g><path style="opacity:1" fill="#fefffe" d="M 377.5,206.5 C 384.833,206.5 392.167,206.5 399.5,206.5C 399.5,208.167 399.5,209.833 399.5,211.5C 396.615,211.194 393.948,211.527 391.5,212.5C 391.5,219.833 391.5,227.167 391.5,234.5C 389.5,234.5 387.5,234.5 385.5,234.5C 385.5,227.167 385.5,219.833 385.5,212.5C 383.052,211.527 380.385,211.194 377.5,211.5C 377.5,209.833 377.5,208.167 377.5,206.5 Z"/></g>
<g><path style="opacity:1" fill="#eeeeee" d="M 409.5,206.5 C 411.924,206.192 414.257,206.526 416.5,207.5C 420.167,216.167 423.833,224.833 427.5,233.5C 423.005,235.365 420.005,234.032 418.5,229.5C 414.833,228.167 411.167,228.167 407.5,229.5C 405.995,234.032 402.995,235.365 398.5,233.5C 402.368,224.556 406.035,215.556 409.5,206.5 Z M 415.5,221.5 C 414.903,222.139 414.07,222.472 413,222.5C 411.624,222.316 410.791,221.649 410.5,220.5C 411.41,218.981 412.243,217.315 413,215.5C 413.573,217.641 414.406,219.641 415.5,221.5 Z"/></g>
<g><path style="opacity:1" fill="#fefffe" d="M 437.5,228.5 C 441.634,229.485 445.968,229.818 450.5,229.5C 450.5,231.167 450.5,232.833 450.5,234.5C 444.167,234.5 437.833,234.5 431.5,234.5C 431.5,225.167 431.5,215.833 431.5,206.5C 433.5,206.5 435.5,206.5 437.5,206.5C 437.5,213.833 437.5,221.167 437.5,228.5 Z"/></g>
<g><path style="opacity:1" fill="#f6f6f6" d="M 475.5,206.5 C 475.5,208.167 475.5,209.833 475.5,211.5C 470.637,211.181 465.97,211.514 461.5,212.5C 461.5,214.167 461.5,215.833 461.5,217.5C 465.833,217.5 470.167,217.5 474.5,217.5C 474.5,219.5 474.5,221.5 474.5,223.5C 470.167,223.5 465.833,223.5 461.5,223.5C 461.5,225.167 461.5,226.833 461.5,228.5C 466.5,228.5 471.5,228.5 476.5,228.5C 476.5,230.5 476.5,232.5 476.5,234.5C 469.5,234.5 462.5,234.5 455.5,234.5C 455.5,225.167 455.5,215.833 455.5,206.5C 462.167,206.5 468.833,206.5 475.5,206.5 Z"/></g>
<g><path style="opacity:1" fill="#fafafa" d="M 489.5,209.5 C 489.738,211.404 490.738,212.738 492.5,213.5C 493.167,213.5 493.5,213.833 493.5,214.5C 493.427,216.027 494.094,217.027 495.5,217.5C 496.167,217.5 496.5,217.833 496.5,218.5C 496.738,220.404 497.738,221.738 499.5,222.5C 500.488,217.36 500.821,212.026 500.5,206.5C 502.5,206.5 504.5,206.5 506.5,206.5C 506.5,215.833 506.5,225.167 506.5,234.5C 504.473,234.662 502.473,234.495 500.5,234C 496.453,228.742 492.287,223.575 488,218.5C 487.501,223.823 487.334,229.156 487.5,234.5C 485.5,234.5 483.5,234.5 481.5,234.5C 481.5,225.167 481.5,215.833 481.5,206.5C 484.948,205.901 487.614,206.901 489.5,209.5 Z"/></g>
<g><path style="opacity:1" fill="#fefffe" d="M 511.5,206.5 C 518.833,206.5 526.167,206.5 533.5,206.5C 533.5,208.167 533.5,209.833 533.5,211.5C 530.615,211.194 527.948,211.527 525.5,212.5C 525.5,219.833 525.5,227.167 525.5,234.5C 523.5,234.5 521.5,234.5 519.5,234.5C 519.5,227.167 519.5,219.833 519.5,212.5C 517.052,211.527 514.385,211.194 511.5,211.5C 511.5,209.833 511.5,208.167 511.5,206.5 Z"/></g>
<g><path style="opacity:1" fill="#e8e8e8" d="M 572.5,228.5 C 572.5,229.5 572.5,230.5 572.5,231.5C 566.857,234.906 560.857,235.406 554.5,233C 548.945,228.422 547.112,222.588 549,215.5C 553.064,207.39 559.564,204.557 568.5,207C 574.722,209.161 575.055,211.994 569.5,215.5C 564.59,211.183 560.09,211.517 556,216.5C 554.178,224.667 557.344,228.5 565.5,228C 568.239,224.59 570.573,224.757 572.5,228.5 Z"/></g>
<g><path style="opacity:1" fill="#fefffe" d="M 584.5,228.5 C 588.634,229.485 592.968,229.818 597.5,229.5C 597.5,231.167 597.5,232.833 597.5,234.5C 591.167,234.5 584.833,234.5 578.5,234.5C 578.5,225.167 578.5,215.833 578.5,206.5C 580.5,206.5 582.5,206.5 584.5,206.5C 584.5,213.833 584.5,221.167 584.5,228.5 Z"/></g>
<g><path style="opacity:1" fill="#eaeaea" d="M 608.5,206.5 C 625.955,205.447 631.789,213.113 626,229.5C 619.459,235.126 612.292,235.96 604.5,232C 598.896,225.803 598.063,218.969 602,211.5C 603.965,209.45 606.132,207.783 608.5,206.5 Z M 611.5,212.5 C 619.642,212.481 622.808,216.481 621,224.5C 615.837,230.062 611.171,229.729 607,223.5C 605.393,218.438 606.893,214.772 611.5,212.5 Z"/></g>
<g><path style="opacity:1" fill="#f4f4f4" d="M 633.5,206.5 C 635.5,206.5 637.5,206.5 639.5,206.5C 639.334,212.176 639.501,217.843 640,223.5C 641.077,228.115 643.91,229.615 648.5,228C 649.893,226.829 650.727,225.329 651,223.5C 651.499,217.843 651.666,212.176 651.5,206.5C 653.5,206.5 655.5,206.5 657.5,206.5C 657.901,214.585 657.401,222.585 656,230.5C 653.307,233.857 649.807,235.191 645.5,234.5C 640.179,235.257 636.346,233.257 634,228.5C 633.5,221.174 633.334,213.841 633.5,206.5 Z"/></g>
<g><path style="opacity:1" fill="#f1f1f1" d="M 683.5,209.5 C 683.833,210.5 684.5,211.167 685.5,211.5C 690.033,216.69 690.533,222.357 687,228.5C 685.039,231.135 682.539,232.969 679.5,234C 674.177,234.499 668.844,234.666 663.5,234.5C 663.5,225.167 663.5,215.833 663.5,206.5C 668.844,206.334 674.177,206.501 679.5,207C 681.32,207.2 682.653,208.034 683.5,209.5 Z M 669.5,212.5 C 676.615,210.882 680.948,213.549 682.5,220.5C 680.948,227.451 676.615,230.118 669.5,228.5C 669.5,223.167 669.5,217.833 669.5,212.5 Z"/></g>
<g><path style="opacity:1" fill="#f4f4f4" d="M 724.5,208.5 C 724.427,210.027 725.094,211.027 726.5,211.5C 729.191,223.48 724.191,228.48 711.5,226.5C 711.5,229.167 711.5,231.833 711.5,234.5C 709.5,234.5 707.5,234.5 705.5,234.5C 705.5,225.167 705.5,215.833 705.5,206.5C 711.176,206.334 716.843,206.501 722.5,207C 723.416,207.278 724.082,207.778 724.5,208.5 Z M 711.5,212.5 C 714.187,212.336 716.854,212.503 719.5,213C 722.167,215.333 722.167,217.667 719.5,220C 716.854,220.497 714.187,220.664 711.5,220.5C 711.5,217.833 711.5,215.167 711.5,212.5 Z"/></g>
<g><path style="opacity:1" fill="#fefffe" d="M 737.5,228.5 C 741.634,229.485 745.968,229.818 750.5,229.5C 750.5,231.167 750.5,232.833 750.5,234.5C 744.167,234.5 737.833,234.5 731.5,234.5C 731.5,225.167 731.5,215.833 731.5,206.5C 733.5,206.5 735.5,206.5 737.5,206.5C 737.5,213.833 737.5,221.167 737.5,228.5 Z"/></g>
<g><path style="opacity:1" fill="#eeeeee" d="M 764.5,206.5 C 766.924,206.192 769.257,206.526 771.5,207.5C 775.167,216.167 778.833,224.833 782.5,233.5C 778.005,235.365 775.005,234.032 773.5,229.5C 769.833,228.167 766.167,228.167 762.5,229.5C 760.995,234.032 757.995,235.365 753.5,233.5C 757.368,224.556 761.035,215.556 764.5,206.5 Z M 770.5,221.5 C 769.903,222.139 769.07,222.472 768,222.5C 766.624,222.316 765.791,221.649 765.5,220.5C 766.41,218.981 767.243,217.315 768,215.5C 768.573,217.641 769.406,219.641 770.5,221.5 Z"/></g>
<g><path style="opacity:1" fill="#fefffe" d="M 781.5,206.5 C 788.833,206.5 796.167,206.5 803.5,206.5C 803.5,208.167 803.5,209.833 803.5,211.5C 800.615,211.194 797.948,211.527 795.5,212.5C 795.5,219.833 795.5,227.167 795.5,234.5C 793.5,234.5 791.5,234.5 789.5,234.5C 789.5,227.167 789.5,219.833 789.5,212.5C 787.052,211.527 784.385,211.194 781.5,211.5C 781.5,209.833 781.5,208.167 781.5,206.5 Z"/></g>
<g><path style="opacity:1" fill="#f5f5f5" d="M 808.5,206.5 C 815.5,206.5 822.5,206.5 829.5,206.5C 829.5,208.5 829.5,210.5 829.5,212.5C 824.5,212.5 819.5,212.5 814.5,212.5C 814.5,214.5 814.5,216.5 814.5,218.5C 818.833,218.5 823.167,218.5 827.5,218.5C 827.5,220.5 827.5,222.5 827.5,224.5C 823.167,224.5 818.833,224.5 814.5,224.5C 814.5,227.833 814.5,231.167 814.5,234.5C 812.5,234.5 810.5,234.5 808.5,234.5C 808.5,225.167 808.5,215.833 808.5,206.5 Z"/></g>
<g><path style="opacity:1" fill="#eaeaea" d="M 841.5,206.5 C 858.955,205.447 864.789,213.113 859,229.5C 852.459,235.126 845.292,235.96 837.5,232C 831.896,225.803 831.063,218.969 835,211.5C 836.965,209.45 839.132,207.783 841.5,206.5 Z M 844.5,212.5 C 852.642,212.481 855.808,216.481 854,224.5C 848.837,230.062 844.171,229.729 840,223.5C 838.393,218.438 839.893,214.772 844.5,212.5 Z"/></g>
<g><path style="opacity:1" fill="#f2f2f2" d="M 866.5,206.5 C 872.509,206.334 878.509,206.501 884.5,207C 886.667,207.833 888.167,209.333 889,211.5C 889.667,214.5 889.667,217.5 889,220.5C 888.167,222.667 886.667,224.167 884.5,225C 886.5,228 888.5,231 890.5,234C 887.833,234.667 885.167,234.667 882.5,234C 880.833,231.667 879.167,229.333 877.5,227C 875.866,226.506 874.199,226.34 872.5,226.5C 872.5,229.167 872.5,231.833 872.5,234.5C 870.5,234.5 868.5,234.5 866.5,234.5C 866.5,225.167 866.5,215.833 866.5,206.5 Z M 872.5,212.5 C 875.518,212.335 878.518,212.502 881.5,213C 884.397,216.229 883.73,218.563 879.5,220C 877.19,220.497 874.857,220.663 872.5,220.5C 872.5,217.833 872.5,215.167 872.5,212.5 Z"/></g>
<g><path style="opacity:1" fill="#f8f8f8" d="M 906.5,213.5 C 906.427,215.027 907.094,216.027 908.5,216.5C 909.167,219.167 909.833,219.167 910.5,216.5C 911.881,212.951 913.881,209.784 916.5,207C 918.81,206.503 921.143,206.337 923.5,206.5C 923.5,215.833 923.5,225.167 923.5,234.5C 921.5,234.5 919.5,234.5 917.5,234.5C 917.666,228.824 917.499,223.157 917,217.5C 915.301,220.921 913.135,223.921 910.5,226.5C 909.391,226.443 908.391,226.11 907.5,225.5C 905.53,223.353 903.697,221.02 902,218.5C 901.501,223.823 901.334,229.156 901.5,234.5C 899.5,234.5 897.5,234.5 895.5,234.5C 895.5,225.167 895.5,215.833 895.5,206.5C 901.537,205.215 905.204,207.549 906.5,213.5 Z"/></g>
<g><path style="opacity:0.129" fill="#9e9e9e" d="M 683.5,209.5 C 684.833,209.5 685.5,210.167 685.5,211.5C 684.5,211.167 683.833,210.5 683.5,209.5 Z"/></g>
<g><path style="opacity:0.996" fill="#bbbbbb" d="M 489.5,209.5 C 491.262,210.262 492.262,211.596 492.5,213.5C 490.738,212.738 489.738,211.404 489.5,209.5 Z"/></g>
<g><path style="opacity:0.839" fill="#afafaf" d="M 724.5,208.5 C 725.906,208.973 726.573,209.973 726.5,211.5C 725.094,211.027 724.427,210.027 724.5,208.5 Z"/></g>
<g><path style="opacity:0.714" fill="#a0a0a0" d="M 377.5,206.5 C 377.5,208.167 377.5,209.833 377.5,211.5C 380.385,211.194 383.052,211.527 385.5,212.5C 382.5,212.5 379.5,212.5 376.5,212.5C 376.205,210.265 376.539,208.265 377.5,206.5 Z"/></g>
<g><path style="opacity:0.714" fill="#a0a0a0" d="M 399.5,206.5 C 400.461,208.265 400.795,210.265 400.5,212.5C 397.5,212.5 394.5,212.5 391.5,212.5C 393.948,211.527 396.615,211.194 399.5,211.5C 399.5,209.833 399.5,208.167 399.5,206.5 Z"/></g>
<g><path style="opacity:0.463" fill="#969696" d="M 475.5,206.5 C 476.461,208.265 476.795,210.265 476.5,212.5C 471.5,212.5 466.5,212.5 461.5,212.5C 465.97,211.514 470.637,211.181 475.5,211.5C 475.5,209.833 475.5,208.167 475.5,206.5 Z"/></g>
<g><path style="opacity:0.714" fill="#a0a0a0" d="M 511.5,206.5 C 511.5,208.167 511.5,209.833 511.5,211.5C 514.385,211.194 517.052,211.527 519.5,212.5C 516.5,212.5 513.5,212.5 510.5,212.5C 510.205,210.265 510.539,208.265 511.5,206.5 Z"/></g>
<g><path style="opacity:0.714" fill="#a0a0a0" d="M 533.5,206.5 C 534.461,208.265 534.795,210.265 534.5,212.5C 531.5,212.5 528.5,212.5 525.5,212.5C 527.948,211.527 530.615,211.194 533.5,211.5C 533.5,209.833 533.5,208.167 533.5,206.5 Z"/></g>
<g><path style="opacity:0.714" fill="#a0a0a0" d="M 781.5,206.5 C 781.5,208.167 781.5,209.833 781.5,211.5C 784.385,211.194 787.052,211.527 789.5,212.5C 786.5,212.5 783.5,212.5 780.5,212.5C 780.205,210.265 780.539,208.265 781.5,206.5 Z"/></g>
<g><path style="opacity:0.714" fill="#a0a0a0" d="M 803.5,206.5 C 804.461,208.265 804.795,210.265 804.5,212.5C 801.5,212.5 798.5,212.5 795.5,212.5C 797.948,211.527 800.615,211.194 803.5,211.5C 803.5,209.833 803.5,208.167 803.5,206.5 Z"/></g>
<g><path style="opacity:0.78" fill="#acacac" d="M 906.5,213.5 C 907.906,213.973 908.573,214.973 908.5,216.5C 907.094,216.027 906.427,215.027 906.5,213.5 Z"/></g>
<g><path style="opacity:0.714" fill="#9e9e9e" d="M 260.5,215.5 C 261.167,215.5 261.833,215.5 262.5,215.5C 261.833,218.167 261.167,218.167 260.5,215.5 Z"/></g>
<g><path style="opacity:0.929" fill="#bababa" d="M 493.5,214.5 C 494.906,214.973 495.573,215.973 495.5,217.5C 494.094,217.027 493.427,216.027 493.5,214.5 Z"/></g>
<g><path style="opacity:0.929" fill="#b6b6b6" d="M 908.5,216.5 C 909.167,216.5 909.833,216.5 910.5,216.5C 909.833,219.167 909.167,219.167 908.5,216.5 Z"/></g>
<g><path style="opacity:0.961" fill="#b9b9b9" d="M 496.5,218.5 C 498.262,219.262 499.262,220.596 499.5,222.5C 497.738,221.738 496.738,220.404 496.5,218.5 Z"/></g>
<g><path style="opacity:0.463" fill="#979797" d="M 410.5,220.5 C 410.791,221.649 411.624,222.316 413,222.5C 414.07,222.472 414.903,222.139 415.5,221.5C 416.043,221.56 416.376,221.893 416.5,222.5C 414.257,223.474 411.924,223.808 409.5,223.5C 409.263,222.209 409.596,221.209 410.5,220.5 Z"/></g>
<g><path style="opacity:0.463" fill="#979797" d="M 765.5,220.5 C 765.791,221.649 766.624,222.316 768,222.5C 769.07,222.472 769.903,222.139 770.5,221.5C 771.043,221.56 771.376,221.893 771.5,222.5C 769.257,223.474 766.924,223.808 764.5,223.5C 764.263,222.209 764.596,221.209 765.5,220.5 Z"/></g>
<g><path style="opacity:0.961" fill="#b3b3b3" d="M 907.5,225.5 C 908.391,226.11 909.391,226.443 910.5,226.5C 909.14,229.015 908.14,228.682 907.5,225.5 Z"/></g>
<g><path style="opacity:0.463" fill="#969696" d="M 437.5,228.5 C 442.167,228.5 446.833,228.5 451.5,228.5C 451.795,230.735 451.461,232.735 450.5,234.5C 450.5,232.833 450.5,231.167 450.5,229.5C 445.968,229.818 441.634,229.485 437.5,228.5 Z"/></g>
<g><path style="opacity:0.463" fill="#969696" d="M 584.5,228.5 C 589.167,228.5 593.833,228.5 598.5,228.5C 598.795,230.735 598.461,232.735 597.5,234.5C 597.5,232.833 597.5,231.167 597.5,229.5C 592.968,229.818 588.634,229.485 584.5,228.5 Z"/></g>
<g><path style="opacity:0.463" fill="#969696" d="M 737.5,228.5 C 742.167,228.5 746.833,228.5 751.5,228.5C 751.795,230.735 751.461,232.735 750.5,234.5C 750.5,232.833 750.5,231.167 750.5,229.5C 745.968,229.818 741.634,229.485 737.5,228.5 Z"/></g>
<g><path style="opacity:0.961" fill="#a8a8a8" d="M 572.5,228.5 C 575.167,229.5 575.167,230.5 572.5,231.5C 572.5,230.5 572.5,229.5 572.5,228.5 Z"/></g>
</svg>
