<?xml version="1.0" encoding="UTF-8"?>
<!DOCTYPE svg PUBLIC "-//W3C//DTD SVG 1.1//EN" "http://www.w3.org/Graphics/SVG/1.1/DTD/svg11.dtd">
<svg xmlns="http://www.w3.org/2000/svg" version="1.1" width="961px" height="289"  style="shape-rendering:geometricPrecision; text-rendering:geometricPrecision; image-rendering:optimizeQuality; fill-rule:evenodd; clip-rule:evenodd" xmlns:xlink="http://www.w3.org/1999/xlink">
<g><path style="opacity:0.989" fill="#a2d9fe" d="M 23.5,29.5 C 80.8333,29.5 138.167,29.5 195.5,29.5C 195.5,86.8333 195.5,144.167 195.5,201.5C 173.5,201.5 151.5,201.5 129.5,201.5C 129.5,166.167 129.5,130.833 129.5,95.5C 94.1667,95.5 58.8333,95.5 23.5,95.5C 23.5,73.5 23.5,51.5 23.5,29.5 Z"/></g>
<g><path style="opacity:0.971" fill="#010926" d="M 274.5,31.5 C 282.84,31.3336 291.173,31.5003 299.5,32C 311.777,34.0386 319.944,40.8719 324,52.5C 325.988,59.3609 326.822,66.3609 326.5,73.5C 316.167,73.5 305.833,73.5 295.5,73.5C 296.524,67.1173 294.857,61.6173 290.5,57C 282.232,55.423 277.898,58.923 277.5,67.5C 277.579,71.2384 278.746,74.5718 281,77.5C 289.505,83.4565 298.671,88.2898 308.5,92C 327.424,104.065 334.257,121.232 329,143.5C 325.245,159.648 315.079,168.815 298.5,171C 289.5,171.667 280.5,171.667 271.5,171C 257.345,169.179 248.512,161.346 245,147.5C 244.037,141.535 243.537,135.535 243.5,129.5C 254.167,129.5 264.833,129.5 275.5,129.5C 275.794,134.261 276.627,138.928 278,143.5C 281.396,147.203 285.563,148.369 290.5,147C 298.392,136.273 296.725,127.273 285.5,120C 277.712,116.606 270.045,112.939 262.5,109C 250.276,100.384 244.61,88.5505 245.5,73.5C 244.364,51.691 254.031,37.691 274.5,31.5 Z"/></g>
<g><path style="opacity:0.98" fill="#010926" d="M 339.5,33.5 C 350.5,33.5 361.5,33.5 372.5,33.5C 372.333,49.8367 372.5,66.1701 373,82.5C 380.371,66.258 387.871,50.0913 395.5,34C 407.5,33.3333 419.5,33.3333 431.5,34C 420.649,53.3667 410.316,73.0333 400.5,93C 411.736,118.209 423.07,143.375 434.5,168.5C 421.833,169.833 409.167,169.833 396.5,168.5C 391.035,153.576 385.035,138.909 378.5,124.5C 376.468,127.368 374.635,130.368 373,133.5C 372.5,145.495 372.333,157.495 372.5,169.5C 361.5,169.5 350.5,169.5 339.5,169.5C 339.5,124.167 339.5,78.8333 339.5,33.5 Z"/></g>
<g><path style="opacity:0.977" fill="#010926" d="M 467.5,33.5 C 481.5,33.5 495.5,33.5 509.5,33.5C 519.341,78.5317 529.341,123.532 539.5,168.5C 527.848,169.666 516.181,169.833 504.5,169C 503.074,161.348 501.74,153.681 500.5,146C 492.507,145.5 484.507,145.334 476.5,145.5C 475.127,153.448 474.127,161.448 473.5,169.5C 461.833,169.5 450.167,169.5 438.5,169.5C 448.166,124.168 457.833,78.8348 467.5,33.5 Z M 488.5,66.5 C 491.802,83.6062 494.469,100.94 496.5,118.5C 491.167,118.5 485.833,118.5 480.5,118.5C 482.74,101.063 485.407,83.7301 488.5,66.5 Z"/></g>
<g><path style="opacity:0.977" fill="#010926" d="M 573.5,33.5 C 587.5,33.5 601.5,33.5 615.5,33.5C 625.341,78.5317 635.341,123.532 645.5,168.5C 633.848,169.666 622.181,169.833 610.5,169C 609.074,161.348 607.74,153.681 606.5,146C 598.507,145.5 590.507,145.334 582.5,145.5C 581.127,153.448 580.127,161.448 579.5,169.5C 567.833,169.5 556.167,169.5 544.5,169.5C 554.166,124.168 563.833,78.8348 573.5,33.5 Z M 594.5,66.5 C 597.802,83.6062 600.469,100.94 602.5,118.5C 597.167,118.5 591.833,118.5 586.5,118.5C 588.74,101.063 591.407,83.7301 594.5,66.5 Z"/></g>
<g><path style="opacity:0.985" fill="#010926" d="M 649.5,33.5 C 660.5,33.5 671.5,33.5 682.5,33.5C 682.5,69.1667 682.5,104.833 682.5,140.5C 695.833,140.5 709.167,140.5 722.5,140.5C 722.5,150.167 722.5,159.833 722.5,169.5C 698.167,169.5 673.833,169.5 649.5,169.5C 649.5,124.167 649.5,78.8333 649.5,33.5 Z"/></g>
<g><path style="opacity:0.977" fill="#010926" d="M 760.5,33.5 C 774.5,33.5 788.5,33.5 802.5,33.5C 812.341,78.5317 822.341,123.532 832.5,168.5C 820.848,169.666 809.181,169.833 797.5,169C 796.074,161.348 794.74,153.681 793.5,146C 785.507,145.5 777.507,145.334 769.5,145.5C 768.127,153.448 767.127,161.448 766.5,169.5C 754.833,169.5 743.167,169.5 731.5,169.5C 741.166,124.168 750.833,78.8348 760.5,33.5 Z M 781.5,66.5 C 784.802,83.6062 787.469,100.94 789.5,118.5C 784.167,118.5 778.833,118.5 773.5,118.5C 775.74,101.063 778.407,83.7301 781.5,66.5 Z"/></g>
<g><path style="opacity:0.98" fill="#010926" d="M 841.5,33.5 C 861.503,33.3334 881.503,33.5 901.5,34C 914.106,36.9391 921.606,44.7724 924,57.5C 925.93,69.1143 924.263,80.1143 919,90.5C 916.273,93.7306 913.106,96.3972 909.5,98.5C 922.982,104.782 929.316,115.449 928.5,130.5C 929.611,150.151 920.945,162.985 902.5,169C 882.169,169.5 861.836,169.667 841.5,169.5C 841.5,124.167 841.5,78.8333 841.5,33.5 Z M 874.5,58.5 C 885.892,56.8397 891.559,61.673 891.5,73C 891.559,84.327 885.892,89.1603 874.5,87.5C 874.5,77.8333 874.5,68.1667 874.5,58.5 Z M 874.5,111.5 C 887.105,109.947 893.772,115.447 894.5,128C 893.73,140.601 887.063,146.101 874.5,144.5C 874.5,133.5 874.5,122.5 874.5,111.5 Z"/></g>
<g><path style="opacity:0.995" fill="#010926" d="M -0.5,119.5 C 34.8333,119.5 70.1667,119.5 105.5,119.5C 105.5,154.833 105.5,190.167 105.5,225.5C 70.1667,225.5 34.8333,225.5 -0.5,225.5C -0.5,190.167 -0.5,154.833 -0.5,119.5 Z"/></g>
<g><path style="opacity:0.887" fill="#000000" d="M 247.5,207.5 C 249.966,206.366 252.633,206.199 255.5,207C 257.389,209.959 259.389,212.792 261.5,215.5C 263.611,212.792 265.611,209.959 267.5,207C 270.167,206.333 272.833,206.333 275.5,207C 271.875,212.415 268.375,217.915 265,223.5C 264.501,227.152 264.335,230.818 264.5,234.5C 262.5,234.5 260.5,234.5 258.5,234.5C 258.665,230.818 258.499,227.152 258,223.5C 254.725,217.93 251.225,212.597 247.5,207.5 Z"/></g>
<g><path style="opacity:0.869" fill="#000000" d="M 284.5,206.5 C 301.955,205.447 307.789,213.113 302,229.5C 295.459,235.126 288.292,235.96 280.5,232C 274.896,225.803 274.063,218.969 278,211.5C 279.965,209.45 282.132,207.783 284.5,206.5 Z M 287.5,212.5 C 295.642,212.481 298.808,216.481 297,224.5C 291.837,230.062 287.171,229.729 283,223.5C 281.393,218.438 282.893,214.772 287.5,212.5 Z"/></g>
<g><path style="opacity:0.933" fill="#000000" d="M 309.5,206.5 C 311.5,206.5 313.5,206.5 315.5,206.5C 315.334,212.176 315.501,217.843 316,223.5C 317.077,228.115 319.91,229.615 324.5,228C 325.893,226.829 326.727,225.329 327,223.5C 327.499,217.843 327.666,212.176 327.5,206.5C 329.5,206.5 331.5,206.5 333.5,206.5C 333.901,214.585 333.401,222.585 332,230.5C 329.307,233.857 325.807,235.191 321.5,234.5C 316.179,235.257 312.346,233.257 310,228.5C 309.5,221.174 309.334,213.841 309.5,206.5 Z"/></g>
<g><path style="opacity:0.922" fill="#000000" d="M 338.5,206.5 C 344.509,206.334 350.509,206.501 356.5,207C 358.667,207.833 360.167,209.333 361,211.5C 361.667,214.5 361.667,217.5 361,220.5C 360.167,222.667 358.667,224.167 356.5,225C 358.5,228 360.5,231 362.5,234C 359.833,234.667 357.167,234.667 354.5,234C 352.833,231.667 351.167,229.333 349.5,227C 347.866,226.506 346.199,226.34 344.5,226.5C 344.5,229.167 344.5,231.833 344.5,234.5C 342.5,234.5 340.5,234.5 338.5,234.5C 338.5,225.167 338.5,215.833 338.5,206.5 Z M 344.5,212.5 C 347.518,212.335 350.518,212.502 353.5,213C 356.397,216.229 355.73,218.563 351.5,220C 349.19,220.497 346.857,220.663 344.5,220.5C 344.5,217.833 344.5,215.167 344.5,212.5 Z"/></g>
<g><path style="opacity:0.936" fill="#000000" d="M 376.5,206.5 C 384.5,206.5 392.5,206.5 400.5,206.5C 400.5,208.5 400.5,210.5 400.5,212.5C 397.5,212.5 394.5,212.5 391.5,212.5C 391.5,219.833 391.5,227.167 391.5,234.5C 389.5,234.5 387.5,234.5 385.5,234.5C 385.5,227.167 385.5,219.833 385.5,212.5C 382.5,212.5 379.5,212.5 376.5,212.5C 376.5,210.5 376.5,208.5 376.5,206.5 Z"/></g>
<g><path style="opacity:0.882" fill="#000000" d="M 409.5,206.5 C 411.924,206.192 414.257,206.526 416.5,207.5C 420.167,216.167 423.833,224.833 427.5,233.5C 423.005,235.365 420.005,234.032 418.5,229.5C 414.833,228.167 411.167,228.167 407.5,229.5C 405.995,234.032 402.995,235.365 398.5,233.5C 402.368,224.556 406.035,215.556 409.5,206.5 Z M 412.5,215.5 C 413.481,217.396 414.481,219.396 415.5,221.5C 413.833,222.833 412.167,222.833 410.5,221.5C 411.372,219.55 412.039,217.55 412.5,215.5 Z"/></g>
<g><path style="opacity:0.948" fill="#000000" d="M 431.5,206.5 C 433.5,206.5 435.5,206.5 437.5,206.5C 437.5,213.833 437.5,221.167 437.5,228.5C 442.167,228.5 446.833,228.5 451.5,228.5C 451.5,230.5 451.5,232.5 451.5,234.5C 444.833,234.5 438.167,234.5 431.5,234.5C 431.5,225.167 431.5,215.833 431.5,206.5 Z"/></g>
<g><path style="opacity:0.913" fill="#000000" d="M 455.5,206.5 C 462.5,206.5 469.5,206.5 476.5,206.5C 476.5,208.5 476.5,210.5 476.5,212.5C 471.5,212.5 466.5,212.5 461.5,212.5C 461.5,214.167 461.5,215.833 461.5,217.5C 465.833,217.5 470.167,217.5 474.5,217.5C 474.5,219.5 474.5,221.5 474.5,223.5C 470.167,223.5 465.833,223.5 461.5,223.5C 461.5,225.167 461.5,226.833 461.5,228.5C 466.5,228.5 471.5,228.5 476.5,228.5C 476.5,230.5 476.5,232.5 476.5,234.5C 469.5,234.5 462.5,234.5 455.5,234.5C 455.5,225.167 455.5,215.833 455.5,206.5 Z"/></g>
<g><path style="opacity:0.951" fill="#000000" d="M 481.5,206.5 C 483.924,206.192 486.257,206.526 488.5,207.5C 492.525,212.358 496.358,217.358 500,222.5C 500.499,217.177 500.666,211.844 500.5,206.5C 502.5,206.5 504.5,206.5 506.5,206.5C 506.5,215.833 506.5,225.167 506.5,234.5C 504.473,234.662 502.473,234.495 500.5,234C 496.453,228.742 492.287,223.575 488,218.5C 487.501,223.823 487.334,229.156 487.5,234.5C 485.5,234.5 483.5,234.5 481.5,234.5C 481.5,225.167 481.5,215.833 481.5,206.5 Z"/></g>
<g><path style="opacity:0.936" fill="#000000" d="M 510.5,206.5 C 518.5,206.5 526.5,206.5 534.5,206.5C 534.5,208.5 534.5,210.5 534.5,212.5C 531.5,212.5 528.5,212.5 525.5,212.5C 525.5,219.833 525.5,227.167 525.5,234.5C 523.5,234.5 521.5,234.5 519.5,234.5C 519.5,227.167 519.5,219.833 519.5,212.5C 516.5,212.5 513.5,212.5 510.5,212.5C 510.5,210.5 510.5,208.5 510.5,206.5 Z"/></g>
<g><path style="opacity:0.853" fill="#000000" d="M 557.5,206.5 C 563.061,205.802 568.227,206.802 573,209.5C 573.417,212.284 572.25,214.284 569.5,215.5C 564.59,211.183 560.09,211.517 556,216.5C 554.178,224.667 557.344,228.5 565.5,228C 566.966,227.365 568.3,226.531 569.5,225.5C 571.316,226.815 572.983,228.315 574.5,230C 569.607,234.244 563.94,235.577 557.5,234C 549.504,230.39 546.671,224.223 549,215.5C 550.688,211.315 553.521,208.315 557.5,206.5 Z"/></g>
<g><path style="opacity:0.948" fill="#000000" d="M 578.5,206.5 C 580.5,206.5 582.5,206.5 584.5,206.5C 584.5,213.833 584.5,221.167 584.5,228.5C 589.167,228.5 593.833,228.5 598.5,228.5C 598.5,230.5 598.5,232.5 598.5,234.5C 591.833,234.5 585.167,234.5 578.5,234.5C 578.5,225.167 578.5,215.833 578.5,206.5 Z"/></g>
<g><path style="opacity:0.869" fill="#000000" d="M 608.5,206.5 C 625.955,205.447 631.789,213.113 626,229.5C 619.459,235.126 612.292,235.96 604.5,232C 598.896,225.803 598.063,218.969 602,211.5C 603.965,209.45 606.132,207.783 608.5,206.5 Z M 611.5,212.5 C 619.642,212.481 622.808,216.481 621,224.5C 615.837,230.062 611.171,229.729 607,223.5C 605.393,218.438 606.893,214.772 611.5,212.5 Z"/></g>
<g><path style="opacity:0.933" fill="#000000" d="M 633.5,206.5 C 635.5,206.5 637.5,206.5 639.5,206.5C 639.334,212.176 639.501,217.843 640,223.5C 641.077,228.115 643.91,229.615 648.5,228C 649.893,226.829 650.727,225.329 651,223.5C 651.499,217.843 651.666,212.176 651.5,206.5C 653.5,206.5 655.5,206.5 657.5,206.5C 657.901,214.585 657.401,222.585 656,230.5C 653.307,233.857 649.807,235.191 645.5,234.5C 640.179,235.257 636.346,233.257 634,228.5C 633.5,221.174 633.334,213.841 633.5,206.5 Z"/></g>
<g><path style="opacity:0.915" fill="#000000" d="M 663.5,206.5 C 669.925,206.13 676.258,206.63 682.5,208C 691.815,216.287 691.815,224.621 682.5,233C 676.258,234.37 669.925,234.87 663.5,234.5C 663.5,225.167 663.5,215.833 663.5,206.5 Z M 669.5,212.5 C 676.615,210.882 680.948,213.549 682.5,220.5C 680.948,227.451 676.615,230.118 669.5,228.5C 669.5,223.167 669.5,217.833 669.5,212.5 Z"/></g>
<g><path style="opacity:0.928" fill="#000000" d="M 705.5,206.5 C 711.176,206.334 716.843,206.501 722.5,207C 724.667,207.833 726.167,209.333 727,211.5C 729.043,223.622 723.876,228.622 711.5,226.5C 711.5,229.167 711.5,231.833 711.5,234.5C 709.5,234.5 707.5,234.5 705.5,234.5C 705.5,225.167 705.5,215.833 705.5,206.5 Z M 711.5,212.5 C 714.187,212.336 716.854,212.503 719.5,213C 722.167,215.333 722.167,217.667 719.5,220C 716.854,220.497 714.187,220.664 711.5,220.5C 711.5,217.833 711.5,215.167 711.5,212.5 Z"/></g>
<g><path style="opacity:0.948" fill="#000000" d="M 731.5,206.5 C 733.5,206.5 735.5,206.5 737.5,206.5C 737.5,213.833 737.5,221.167 737.5,228.5C 742.167,228.5 746.833,228.5 751.5,228.5C 751.5,230.5 751.5,232.5 751.5,234.5C 744.833,234.5 738.167,234.5 731.5,234.5C 731.5,225.167 731.5,215.833 731.5,206.5 Z"/></g>
<g><path style="opacity:0.882" fill="#000000" d="M 764.5,206.5 C 766.924,206.192 769.257,206.526 771.5,207.5C 775.167,216.167 778.833,224.833 782.5,233.5C 778.005,235.365 775.005,234.032 773.5,229.5C 769.833,228.167 766.167,228.167 762.5,229.5C 760.995,234.032 757.995,235.365 753.5,233.5C 757.368,224.556 761.035,215.556 764.5,206.5 Z M 767.5,215.5 C 768.481,217.396 769.481,219.396 770.5,221.5C 768.833,222.833 767.167,222.833 765.5,221.5C 766.372,219.55 767.039,217.55 767.5,215.5 Z"/></g>
<g><path style="opacity:0.936" fill="#000000" d="M 780.5,206.5 C 788.5,206.5 796.5,206.5 804.5,206.5C 804.5,208.5 804.5,210.5 804.5,212.5C 801.5,212.5 798.5,212.5 795.5,212.5C 795.5,219.833 795.5,227.167 795.5,234.5C 793.5,234.5 791.5,234.5 789.5,234.5C 789.5,227.167 789.5,219.833 789.5,212.5C 786.5,212.5 783.5,212.5 780.5,212.5C 780.5,210.5 780.5,208.5 780.5,206.5 Z"/></g>
<g><path style="opacity:0.935" fill="#000000" d="M 808.5,206.5 C 815.5,206.5 822.5,206.5 829.5,206.5C 829.5,208.5 829.5,210.5 829.5,212.5C 824.5,212.5 819.5,212.5 814.5,212.5C 814.5,214.5 814.5,216.5 814.5,218.5C 818.833,218.5 823.167,218.5 827.5,218.5C 827.5,220.5 827.5,222.5 827.5,224.5C 823.167,224.5 818.833,224.5 814.5,224.5C 814.5,227.833 814.5,231.167 814.5,234.5C 812.5,234.5 810.5,234.5 808.5,234.5C 808.5,225.167 808.5,215.833 808.5,206.5 Z"/></g>
<g><path style="opacity:0.869" fill="#000000" d="M 841.5,206.5 C 858.955,205.447 864.789,213.113 859,229.5C 852.459,235.126 845.292,235.96 837.5,232C 831.896,225.803 831.063,218.969 835,211.5C 836.965,209.45 839.132,207.783 841.5,206.5 Z M 844.5,212.5 C 852.642,212.481 855.808,216.481 854,224.5C 848.837,230.062 844.171,229.729 840,223.5C 838.393,218.438 839.893,214.772 844.5,212.5 Z"/></g>
<g><path style="opacity:0.922" fill="#000000" d="M 866.5,206.5 C 872.509,206.334 878.509,206.501 884.5,207C 886.667,207.833 888.167,209.333 889,211.5C 889.667,214.5 889.667,217.5 889,220.5C 888.167,222.667 886.667,224.167 884.5,225C 886.5,228 888.5,231 890.5,234C 887.833,234.667 885.167,234.667 882.5,234C 880.833,231.667 879.167,229.333 877.5,227C 875.866,226.506 874.199,226.34 872.5,226.5C 872.5,229.167 872.5,231.833 872.5,234.5C 870.5,234.5 868.5,234.5 866.5,234.5C 866.5,225.167 866.5,215.833 866.5,206.5 Z M 872.5,212.5 C 875.518,212.335 878.518,212.502 881.5,213C 884.397,216.229 883.73,218.563 879.5,220C 877.19,220.497 874.857,220.663 872.5,220.5C 872.5,217.833 872.5,215.167 872.5,212.5 Z"/></g>
<g><path style="opacity:0.946" fill="#000000" d="M 895.5,206.5 C 897.857,206.337 900.19,206.503 902.5,207C 904.955,210.078 907.289,213.244 909.5,216.5C 911.699,213.282 914.033,210.116 916.5,207C 918.81,206.503 921.143,206.337 923.5,206.5C 923.5,215.833 923.5,225.167 923.5,234.5C 921.5,234.5 919.5,234.5 917.5,234.5C 917.666,228.824 917.499,223.157 917,217.5C 914.695,221.304 912.195,224.97 909.5,228.5C 906.768,225.384 904.268,222.051 902,218.5C 901.501,223.823 901.334,229.156 901.5,234.5C 899.5,234.5 897.5,234.5 895.5,234.5C 895.5,225.167 895.5,215.833 895.5,206.5 Z"/></g>
</svg>
